<mxfile modified="2021-09-14T01:11:23.544Z" host="app.diagrams.net" agent="5.0 (Windows NT 10.0; Win64; x64) AppleWebKit/537.36 (KHTML, like Gecko) Chrome/93.0.4577.63 Safari/537.36 Edg/93.0.961.47" etag="uSfeH9K0-tInkrbyIebh" version="15.2.5" type="github">
  <diagram id="Ht1M8jgEwFfnCIfOTk4-" name="Page-1">
    <mxGraphModel dx="2733" dy="1779" grid="1" gridSize="10" guides="1" tooltips="1" connect="1" arrows="1" fold="1" page="1" pageScale="1" pageWidth="1169" pageHeight="827" math="0" shadow="0">
      <root>
        <mxCell id="0" />
        <mxCell id="1" parent="0" />
        <mxCell id="6LrgvF6shyWRI7KwbfYu-5" value="Region" style="sketch=0;outlineConnect=0;gradientColor=none;html=1;whiteSpace=wrap;fontSize=12;fontStyle=0;shape=mxgraph.aws4.group;grIcon=mxgraph.aws4.group_region;strokeColor=#879196;fillColor=none;verticalAlign=top;align=left;spacingLeft=30;fontColor=#879196;dashed=1;" vertex="1" parent="1">
          <mxGeometry y="-827" width="1160" height="820" as="geometry" />
        </mxCell>
        <mxCell id="6LrgvF6shyWRI7KwbfYu-2" value="VPC" style="sketch=0;outlineConnect=0;gradientColor=none;html=1;whiteSpace=wrap;fontSize=12;fontStyle=0;shape=mxgraph.aws4.group;grIcon=mxgraph.aws4.group_vpc;strokeColor=#879196;fillColor=none;verticalAlign=top;align=left;spacingLeft=30;fontColor=#879196;dashed=0;" vertex="1" parent="1">
          <mxGeometry x="220" y="-800" width="940" height="790" as="geometry" />
        </mxCell>
        <mxCell id="6LrgvF6shyWRI7KwbfYu-11" value="Availability zone" style="sketch=0;outlineConnect=0;gradientColor=none;html=1;whiteSpace=wrap;fontSize=12;fontStyle=0;shape=mxgraph.aws4.group;grIcon=mxgraph.aws4.group_availability_zone;strokeColor=#545B64;fillColor=none;verticalAlign=top;align=left;spacingLeft=30;fontColor=#545B64;dashed=1;" vertex="1" parent="1">
          <mxGeometry x="270" y="-780" width="840" height="320" as="geometry" />
        </mxCell>
        <mxCell id="6LrgvF6shyWRI7KwbfYu-28" value="Subnet" style="sketch=0;outlineConnect=0;gradientColor=none;html=1;whiteSpace=wrap;fontSize=12;fontStyle=0;shape=mxgraph.aws4.group;grIcon=mxgraph.aws4.group_subnet;strokeColor=#879196;fillColor=none;verticalAlign=top;align=left;spacingLeft=30;fontColor=#879196;dashed=0;" vertex="1" parent="1">
          <mxGeometry x="299" y="-746.5" width="820" height="268.5" as="geometry" />
        </mxCell>
        <mxCell id="6LrgvF6shyWRI7KwbfYu-37" style="edgeStyle=orthogonalEdgeStyle;rounded=0;orthogonalLoop=1;jettySize=auto;html=1;exitX=0.5;exitY=0;exitDx=0;exitDy=0;exitPerimeter=0;entryX=0.71;entryY=1.022;entryDx=0;entryDy=0;entryPerimeter=0;" edge="1" parent="1" source="6LrgvF6shyWRI7KwbfYu-3" target="6LrgvF6shyWRI7KwbfYu-7">
          <mxGeometry relative="1" as="geometry" />
        </mxCell>
        <mxCell id="6LrgvF6shyWRI7KwbfYu-3" value="" style="outlineConnect=0;dashed=0;verticalLabelPosition=bottom;verticalAlign=top;align=center;html=1;shape=mxgraph.aws3.route_53;fillColor=#F58536;gradientColor=none;" vertex="1" parent="1">
          <mxGeometry x="-270" y="-330" width="70.5" height="85.5" as="geometry" />
        </mxCell>
        <mxCell id="6LrgvF6shyWRI7KwbfYu-43" style="edgeStyle=orthogonalEdgeStyle;rounded=0;orthogonalLoop=1;jettySize=auto;html=1;exitX=0.5;exitY=0;exitDx=0;exitDy=0;exitPerimeter=0;entryX=0;entryY=0.5;entryDx=0;entryDy=0;entryPerimeter=0;" edge="1" parent="1" source="6LrgvF6shyWRI7KwbfYu-4" target="6LrgvF6shyWRI7KwbfYu-29">
          <mxGeometry relative="1" as="geometry" />
        </mxCell>
        <mxCell id="6LrgvF6shyWRI7KwbfYu-4" value="" style="outlineConnect=0;dashed=0;verticalLabelPosition=bottom;verticalAlign=top;align=center;html=1;shape=mxgraph.aws3.internet_gateway;fillColor=#F58534;gradientColor=none;" vertex="1" parent="1">
          <mxGeometry x="181" y="-441" width="69" height="72" as="geometry" />
        </mxCell>
        <mxCell id="6LrgvF6shyWRI7KwbfYu-68" style="edgeStyle=orthogonalEdgeStyle;rounded=0;orthogonalLoop=1;jettySize=auto;html=1;exitX=1;exitY=0.5;exitDx=0;exitDy=0;exitPerimeter=0;" edge="1" parent="1" source="6LrgvF6shyWRI7KwbfYu-7" target="6LrgvF6shyWRI7KwbfYu-4">
          <mxGeometry relative="1" as="geometry">
            <Array as="points">
              <mxPoint x="170" y="-623" />
              <mxPoint x="170" y="-405" />
            </Array>
          </mxGeometry>
        </mxCell>
        <mxCell id="6LrgvF6shyWRI7KwbfYu-69" style="edgeStyle=orthogonalEdgeStyle;rounded=0;orthogonalLoop=1;jettySize=auto;html=1;exitX=1;exitY=0.5;exitDx=0;exitDy=0;exitPerimeter=0;" edge="1" parent="1" source="6LrgvF6shyWRI7KwbfYu-7" target="6LrgvF6shyWRI7KwbfYu-9">
          <mxGeometry relative="1" as="geometry" />
        </mxCell>
        <mxCell id="6LrgvF6shyWRI7KwbfYu-7" value="" style="outlineConnect=0;dashed=0;verticalLabelPosition=bottom;verticalAlign=top;align=center;html=1;shape=mxgraph.aws3.cloudfront;fillColor=#F58536;gradientColor=none;" vertex="1" parent="1">
          <mxGeometry x="-290" y="-670" width="76.5" height="93" as="geometry" />
        </mxCell>
        <mxCell id="6LrgvF6shyWRI7KwbfYu-40" style="edgeStyle=orthogonalEdgeStyle;rounded=0;orthogonalLoop=1;jettySize=auto;html=1;exitX=0.92;exitY=0.5;exitDx=0;exitDy=0;exitPerimeter=0;" edge="1" parent="1" source="6LrgvF6shyWRI7KwbfYu-8" target="6LrgvF6shyWRI7KwbfYu-2">
          <mxGeometry relative="1" as="geometry" />
        </mxCell>
        <mxCell id="6LrgvF6shyWRI7KwbfYu-8" value="" style="outlineConnect=0;dashed=0;verticalLabelPosition=bottom;verticalAlign=top;align=center;html=1;shape=mxgraph.aws3.iam;fillColor=#759C3E;gradientColor=none;" vertex="1" parent="1">
          <mxGeometry x="283.5" y="-163" width="42" height="81" as="geometry" />
        </mxCell>
        <mxCell id="6LrgvF6shyWRI7KwbfYu-9" value="" style="sketch=0;points=[[0,0,0],[0.25,0,0],[0.5,0,0],[0.75,0,0],[1,0,0],[0,1,0],[0.25,1,0],[0.5,1,0],[0.75,1,0],[1,1,0],[0,0.25,0],[0,0.5,0],[0,0.75,0],[1,0.25,0],[1,0.5,0],[1,0.75,0]];outlineConnect=0;fontColor=#232F3E;gradientColor=#60A337;gradientDirection=north;fillColor=#277116;strokeColor=#ffffff;dashed=0;verticalLabelPosition=bottom;verticalAlign=top;align=center;html=1;fontSize=12;fontStyle=0;aspect=fixed;shape=mxgraph.aws4.resourceIcon;resIcon=mxgraph.aws4.s3;" vertex="1" parent="1">
          <mxGeometry x="72" y="-230" width="78" height="78" as="geometry" />
        </mxCell>
        <mxCell id="6LrgvF6shyWRI7KwbfYu-12" value="Availability zone" style="sketch=0;outlineConnect=0;gradientColor=none;html=1;whiteSpace=wrap;fontSize=12;fontStyle=0;shape=mxgraph.aws4.group;grIcon=mxgraph.aws4.group_availability_zone;strokeColor=#545B64;fillColor=none;verticalAlign=top;align=left;spacingLeft=30;fontColor=#545B64;dashed=1;" vertex="1" parent="1">
          <mxGeometry x="240" y="-340" width="880" height="330" as="geometry" />
        </mxCell>
        <mxCell id="6LrgvF6shyWRI7KwbfYu-14" value="Subnet" style="sketch=0;outlineConnect=0;gradientColor=none;html=1;whiteSpace=wrap;fontSize=12;fontStyle=0;shape=mxgraph.aws4.group;grIcon=mxgraph.aws4.group_subnet;strokeColor=#879196;fillColor=none;verticalAlign=top;align=left;spacingLeft=30;fontColor=#879196;dashed=0;" vertex="1" parent="1">
          <mxGeometry x="250" y="-310" width="860" height="290" as="geometry" />
        </mxCell>
        <mxCell id="6LrgvF6shyWRI7KwbfYu-15" value="Public subnet" style="points=[[0,0],[0.25,0],[0.5,0],[0.75,0],[1,0],[1,0.25],[1,0.5],[1,0.75],[1,1],[0.75,1],[0.5,1],[0.25,1],[0,1],[0,0.75],[0,0.5],[0,0.25]];outlineConnect=0;gradientColor=none;html=1;whiteSpace=wrap;fontSize=12;fontStyle=0;shape=mxgraph.aws4.group;grIcon=mxgraph.aws4.group_security_group;grStroke=0;strokeColor=#248814;fillColor=#E9F3E6;verticalAlign=top;align=left;spacingLeft=30;fontColor=#248814;dashed=0;" vertex="1" parent="1">
          <mxGeometry x="360" y="-699" width="400" height="159" as="geometry" />
        </mxCell>
        <mxCell id="6LrgvF6shyWRI7KwbfYu-16" value="Private subnet" style="points=[[0,0],[0.25,0],[0.5,0],[0.75,0],[1,0],[1,0.25],[1,0.5],[1,0.75],[1,1],[0.75,1],[0.5,1],[0.25,1],[0,1],[0,0.75],[0,0.5],[0,0.25]];outlineConnect=0;gradientColor=none;html=1;whiteSpace=wrap;fontSize=12;fontStyle=0;shape=mxgraph.aws4.group;grIcon=mxgraph.aws4.group_security_group;grStroke=0;strokeColor=#147EBA;fillColor=#E6F2F8;verticalAlign=top;align=left;spacingLeft=30;fontColor=#147EBA;dashed=0;" vertex="1" parent="1">
          <mxGeometry x="790" y="-710" width="280" height="170" as="geometry" />
        </mxCell>
        <mxCell id="6LrgvF6shyWRI7KwbfYu-47" style="edgeStyle=orthogonalEdgeStyle;rounded=0;orthogonalLoop=1;jettySize=auto;html=1;exitX=1;exitY=0.5;exitDx=0;exitDy=0;exitPerimeter=0;entryX=0.06;entryY=0.5;entryDx=0;entryDy=0;entryPerimeter=0;" edge="1" parent="1" source="6LrgvF6shyWRI7KwbfYu-17" target="6LrgvF6shyWRI7KwbfYu-20">
          <mxGeometry relative="1" as="geometry" />
        </mxCell>
        <mxCell id="6LrgvF6shyWRI7KwbfYu-49" style="edgeStyle=orthogonalEdgeStyle;rounded=0;orthogonalLoop=1;jettySize=auto;html=1;exitX=0.5;exitY=0;exitDx=0;exitDy=0;exitPerimeter=0;entryX=0.5;entryY=0;entryDx=0;entryDy=0;entryPerimeter=0;" edge="1" parent="1" source="6LrgvF6shyWRI7KwbfYu-17" target="6LrgvF6shyWRI7KwbfYu-18">
          <mxGeometry relative="1" as="geometry" />
        </mxCell>
        <mxCell id="6LrgvF6shyWRI7KwbfYu-17" value="" style="outlineConnect=0;dashed=0;verticalLabelPosition=bottom;verticalAlign=top;align=center;html=1;shape=mxgraph.aws3.ec2;fillColor=#F58534;gradientColor=none;" vertex="1" parent="1">
          <mxGeometry x="390" y="-650" width="76.5" height="93" as="geometry" />
        </mxCell>
        <mxCell id="6LrgvF6shyWRI7KwbfYu-18" value="" style="sketch=0;points=[[0,0,0],[0.25,0,0],[0.5,0,0],[0.75,0,0],[1,0,0],[0,1,0],[0.25,1,0],[0.5,1,0],[0.75,1,0],[1,1,0],[0,0.25,0],[0,0.5,0],[0,0.75,0],[1,0.25,0],[1,0.5,0],[1,0.75,0]];outlineConnect=0;fontColor=#232F3E;gradientColor=#4D72F3;gradientDirection=north;fillColor=#3334B9;strokeColor=#ffffff;dashed=0;verticalLabelPosition=bottom;verticalAlign=top;align=center;html=1;fontSize=12;fontStyle=0;aspect=fixed;shape=mxgraph.aws4.resourceIcon;resIcon=mxgraph.aws4.rds;" vertex="1" parent="1">
          <mxGeometry x="650" y="-642.5" width="78" height="78" as="geometry" />
        </mxCell>
        <mxCell id="6LrgvF6shyWRI7KwbfYu-20" value="" style="outlineConnect=0;dashed=0;verticalLabelPosition=bottom;verticalAlign=top;align=center;html=1;shape=mxgraph.aws3.bucket_with_objects;fillColor=#E05243;gradientColor=none;" vertex="1" parent="1">
          <mxGeometry x="530" y="-610" width="60" height="61.5" as="geometry" />
        </mxCell>
        <mxCell id="6LrgvF6shyWRI7KwbfYu-21" value="" style="sketch=0;points=[[0,0,0],[0.25,0,0],[0.5,0,0],[0.75,0,0],[1,0,0],[0,1,0],[0.25,1,0],[0.5,1,0],[0.75,1,0],[1,1,0],[0,0.25,0],[0,0.5,0],[0,0.75,0],[1,0.25,0],[1,0.5,0],[1,0.75,0]];outlineConnect=0;fontColor=#232F3E;gradientColor=#4D72F3;gradientDirection=north;fillColor=#3334B9;strokeColor=#ffffff;dashed=0;verticalLabelPosition=bottom;verticalAlign=top;align=center;html=1;fontSize=12;fontStyle=0;aspect=fixed;shape=mxgraph.aws4.resourceIcon;resIcon=mxgraph.aws4.rds;" vertex="1" parent="1">
          <mxGeometry x="880" y="-647" width="78" height="78" as="geometry" />
        </mxCell>
        <mxCell id="6LrgvF6shyWRI7KwbfYu-22" value="Public subnet" style="points=[[0,0],[0.25,0],[0.5,0],[0.75,0],[1,0],[1,0.25],[1,0.5],[1,0.75],[1,1],[0.75,1],[0.5,1],[0.25,1],[0,1],[0,0.75],[0,0.5],[0,0.25]];outlineConnect=0;gradientColor=none;html=1;whiteSpace=wrap;fontSize=12;fontStyle=0;shape=mxgraph.aws4.group;grIcon=mxgraph.aws4.group_security_group;grStroke=0;strokeColor=#248814;fillColor=#E9F3E6;verticalAlign=top;align=left;spacingLeft=30;fontColor=#248814;dashed=0;" vertex="1" parent="1">
          <mxGeometry x="369" y="-200" width="400" height="159" as="geometry" />
        </mxCell>
        <mxCell id="6LrgvF6shyWRI7KwbfYu-54" style="edgeStyle=orthogonalEdgeStyle;rounded=0;orthogonalLoop=1;jettySize=auto;html=1;exitX=1;exitY=0.5;exitDx=0;exitDy=0;exitPerimeter=0;entryX=0.06;entryY=0.5;entryDx=0;entryDy=0;entryPerimeter=0;" edge="1" parent="1" source="6LrgvF6shyWRI7KwbfYu-23" target="6LrgvF6shyWRI7KwbfYu-24">
          <mxGeometry relative="1" as="geometry" />
        </mxCell>
        <mxCell id="6LrgvF6shyWRI7KwbfYu-23" value="" style="outlineConnect=0;dashed=0;verticalLabelPosition=bottom;verticalAlign=top;align=center;html=1;shape=mxgraph.aws3.ec2;fillColor=#F58534;gradientColor=none;" vertex="1" parent="1">
          <mxGeometry x="409" y="-152.5" width="76.5" height="93" as="geometry" />
        </mxCell>
        <mxCell id="6LrgvF6shyWRI7KwbfYu-55" style="edgeStyle=orthogonalEdgeStyle;rounded=0;orthogonalLoop=1;jettySize=auto;html=1;exitX=0.94;exitY=0.5;exitDx=0;exitDy=0;exitPerimeter=0;entryX=0;entryY=0.5;entryDx=0;entryDy=0;entryPerimeter=0;" edge="1" parent="1" source="6LrgvF6shyWRI7KwbfYu-24" target="6LrgvF6shyWRI7KwbfYu-25">
          <mxGeometry relative="1" as="geometry" />
        </mxCell>
        <mxCell id="6LrgvF6shyWRI7KwbfYu-24" value="" style="outlineConnect=0;dashed=0;verticalLabelPosition=bottom;verticalAlign=top;align=center;html=1;shape=mxgraph.aws3.bucket_with_objects;fillColor=#E05243;gradientColor=none;" vertex="1" parent="1">
          <mxGeometry x="549" y="-124.5" width="60" height="61.5" as="geometry" />
        </mxCell>
        <mxCell id="6LrgvF6shyWRI7KwbfYu-25" value="" style="sketch=0;points=[[0,0,0],[0.25,0,0],[0.5,0,0],[0.75,0,0],[1,0,0],[0,1,0],[0.25,1,0],[0.5,1,0],[0.75,1,0],[1,1,0],[0,0.25,0],[0,0.5,0],[0,0.75,0],[1,0.25,0],[1,0.5,0],[1,0.75,0]];outlineConnect=0;fontColor=#232F3E;gradientColor=#4D72F3;gradientDirection=north;fillColor=#3334B9;strokeColor=#ffffff;dashed=0;verticalLabelPosition=bottom;verticalAlign=top;align=center;html=1;fontSize=12;fontStyle=0;aspect=fixed;shape=mxgraph.aws4.resourceIcon;resIcon=mxgraph.aws4.rds;" vertex="1" parent="1">
          <mxGeometry x="669" y="-137.5" width="78" height="78" as="geometry" />
        </mxCell>
        <mxCell id="6LrgvF6shyWRI7KwbfYu-26" value="Private subnet" style="points=[[0,0],[0.25,0],[0.5,0],[0.75,0],[1,0],[1,0.25],[1,0.5],[1,0.75],[1,1],[0.75,1],[0.5,1],[0.25,1],[0,1],[0,0.75],[0,0.5],[0,0.25]];outlineConnect=0;gradientColor=none;html=1;whiteSpace=wrap;fontSize=12;fontStyle=0;shape=mxgraph.aws4.group;grIcon=mxgraph.aws4.group_security_group;grStroke=0;strokeColor=#147EBA;fillColor=#E6F2F8;verticalAlign=top;align=left;spacingLeft=30;fontColor=#147EBA;dashed=0;" vertex="1" parent="1">
          <mxGeometry x="790" y="-220" width="280" height="170" as="geometry" />
        </mxCell>
        <mxCell id="6LrgvF6shyWRI7KwbfYu-27" value="" style="sketch=0;points=[[0,0,0],[0.25,0,0],[0.5,0,0],[0.75,0,0],[1,0,0],[0,1,0],[0.25,1,0],[0.5,1,0],[0.75,1,0],[1,1,0],[0,0.25,0],[0,0.5,0],[0,0.75,0],[1,0.25,0],[1,0.5,0],[1,0.75,0]];outlineConnect=0;fontColor=#232F3E;gradientColor=#4D72F3;gradientDirection=north;fillColor=#3334B9;strokeColor=#ffffff;dashed=0;verticalLabelPosition=bottom;verticalAlign=top;align=center;html=1;fontSize=12;fontStyle=0;aspect=fixed;shape=mxgraph.aws4.resourceIcon;resIcon=mxgraph.aws4.rds;" vertex="1" parent="1">
          <mxGeometry x="891" y="-160" width="78" height="78" as="geometry" />
        </mxCell>
        <mxCell id="6LrgvF6shyWRI7KwbfYu-45" style="edgeStyle=orthogonalEdgeStyle;rounded=0;orthogonalLoop=1;jettySize=auto;html=1;exitX=0.5;exitY=0;exitDx=0;exitDy=0;exitPerimeter=0;entryX=0;entryY=0.5;entryDx=0;entryDy=0;entryPerimeter=0;" edge="1" parent="1" source="6LrgvF6shyWRI7KwbfYu-29" target="6LrgvF6shyWRI7KwbfYu-17">
          <mxGeometry relative="1" as="geometry" />
        </mxCell>
        <mxCell id="6LrgvF6shyWRI7KwbfYu-46" style="edgeStyle=orthogonalEdgeStyle;rounded=0;orthogonalLoop=1;jettySize=auto;html=1;exitX=1;exitY=0.5;exitDx=0;exitDy=0;exitPerimeter=0;entryX=0.75;entryY=1;entryDx=0;entryDy=0;entryPerimeter=0;" edge="1" parent="1" source="6LrgvF6shyWRI7KwbfYu-29" target="6LrgvF6shyWRI7KwbfYu-21">
          <mxGeometry relative="1" as="geometry" />
        </mxCell>
        <mxCell id="6LrgvF6shyWRI7KwbfYu-29" value="" style="outlineConnect=0;dashed=0;verticalLabelPosition=bottom;verticalAlign=top;align=center;html=1;shape=mxgraph.aws3.vpc_nat_gateway;fillColor=#F58534;gradientColor=none;" vertex="1" parent="1">
          <mxGeometry x="300" y="-550" width="69" height="72" as="geometry" />
        </mxCell>
        <mxCell id="6LrgvF6shyWRI7KwbfYu-56" style="edgeStyle=orthogonalEdgeStyle;rounded=0;orthogonalLoop=1;jettySize=auto;html=1;exitX=1;exitY=0.5;exitDx=0;exitDy=0;exitPerimeter=0;" edge="1" parent="1" source="6LrgvF6shyWRI7KwbfYu-30" target="6LrgvF6shyWRI7KwbfYu-27">
          <mxGeometry relative="1" as="geometry" />
        </mxCell>
        <mxCell id="6LrgvF6shyWRI7KwbfYu-30" value="" style="outlineConnect=0;dashed=0;verticalLabelPosition=bottom;verticalAlign=top;align=center;html=1;shape=mxgraph.aws3.vpc_nat_gateway;fillColor=#F58534;gradientColor=none;" vertex="1" parent="1">
          <mxGeometry x="270" y="-272" width="69" height="72" as="geometry" />
        </mxCell>
        <mxCell id="6LrgvF6shyWRI7KwbfYu-50" style="edgeStyle=orthogonalEdgeStyle;rounded=0;orthogonalLoop=1;jettySize=auto;html=1;exitX=0.5;exitY=0;exitDx=0;exitDy=0;exitPerimeter=0;" edge="1" parent="1" source="6LrgvF6shyWRI7KwbfYu-31" target="6LrgvF6shyWRI7KwbfYu-17">
          <mxGeometry relative="1" as="geometry" />
        </mxCell>
        <mxCell id="6LrgvF6shyWRI7KwbfYu-51" style="edgeStyle=orthogonalEdgeStyle;rounded=0;orthogonalLoop=1;jettySize=auto;html=1;exitX=0.5;exitY=1;exitDx=0;exitDy=0;exitPerimeter=0;" edge="1" parent="1" source="6LrgvF6shyWRI7KwbfYu-31" target="6LrgvF6shyWRI7KwbfYu-23">
          <mxGeometry relative="1" as="geometry" />
        </mxCell>
        <mxCell id="6LrgvF6shyWRI7KwbfYu-31" value="" style="outlineConnect=0;dashed=0;verticalLabelPosition=bottom;verticalAlign=top;align=center;html=1;shape=mxgraph.aws3.elastic_load_balancing;fillColor=#F58534;gradientColor=none;" vertex="1" parent="1">
          <mxGeometry x="390" y="-449.25" width="76.5" height="93" as="geometry" />
        </mxCell>
        <mxCell id="6LrgvF6shyWRI7KwbfYu-52" style="edgeStyle=orthogonalEdgeStyle;rounded=0;orthogonalLoop=1;jettySize=auto;html=1;exitX=0.5;exitY=0;exitDx=0;exitDy=0;exitPerimeter=0;" edge="1" parent="1" source="6LrgvF6shyWRI7KwbfYu-32" target="6LrgvF6shyWRI7KwbfYu-17">
          <mxGeometry relative="1" as="geometry" />
        </mxCell>
        <mxCell id="6LrgvF6shyWRI7KwbfYu-53" style="edgeStyle=orthogonalEdgeStyle;rounded=0;orthogonalLoop=1;jettySize=auto;html=1;exitX=0.5;exitY=1;exitDx=0;exitDy=0;exitPerimeter=0;" edge="1" parent="1" source="6LrgvF6shyWRI7KwbfYu-32" target="6LrgvF6shyWRI7KwbfYu-23">
          <mxGeometry relative="1" as="geometry" />
        </mxCell>
        <mxCell id="6LrgvF6shyWRI7KwbfYu-57" style="edgeStyle=orthogonalEdgeStyle;rounded=0;orthogonalLoop=1;jettySize=auto;html=1;exitX=0.5;exitY=0;exitDx=0;exitDy=0;exitPerimeter=0;" edge="1" parent="1" source="6LrgvF6shyWRI7KwbfYu-32" target="6LrgvF6shyWRI7KwbfYu-18">
          <mxGeometry relative="1" as="geometry" />
        </mxCell>
        <mxCell id="6LrgvF6shyWRI7KwbfYu-58" style="edgeStyle=orthogonalEdgeStyle;rounded=0;orthogonalLoop=1;jettySize=auto;html=1;exitX=0.5;exitY=0;exitDx=0;exitDy=0;exitPerimeter=0;entryX=0.25;entryY=1;entryDx=0;entryDy=0;entryPerimeter=0;" edge="1" parent="1" source="6LrgvF6shyWRI7KwbfYu-32" target="6LrgvF6shyWRI7KwbfYu-21">
          <mxGeometry relative="1" as="geometry">
            <Array as="points">
              <mxPoint x="960" y="-441" />
              <mxPoint x="960" y="-569" />
            </Array>
          </mxGeometry>
        </mxCell>
        <mxCell id="6LrgvF6shyWRI7KwbfYu-59" style="edgeStyle=orthogonalEdgeStyle;rounded=0;orthogonalLoop=1;jettySize=auto;html=1;exitX=1;exitY=0.5;exitDx=0;exitDy=0;exitPerimeter=0;entryX=0.75;entryY=0;entryDx=0;entryDy=0;entryPerimeter=0;" edge="1" parent="1" source="6LrgvF6shyWRI7KwbfYu-32" target="6LrgvF6shyWRI7KwbfYu-27">
          <mxGeometry relative="1" as="geometry" />
        </mxCell>
        <mxCell id="6LrgvF6shyWRI7KwbfYu-32" value="" style="outlineConnect=0;dashed=0;verticalLabelPosition=bottom;verticalAlign=top;align=center;html=1;shape=mxgraph.aws3.auto_scaling;fillColor=#F58534;gradientColor=none;" vertex="1" parent="1">
          <mxGeometry x="620" y="-441" width="79.5" height="76.5" as="geometry" />
        </mxCell>
        <mxCell id="6LrgvF6shyWRI7KwbfYu-36" style="edgeStyle=orthogonalEdgeStyle;rounded=0;orthogonalLoop=1;jettySize=auto;html=1;exitX=0.5;exitY=0;exitDx=0;exitDy=0;" edge="1" parent="1" source="6LrgvF6shyWRI7KwbfYu-33" target="6LrgvF6shyWRI7KwbfYu-3">
          <mxGeometry relative="1" as="geometry" />
        </mxCell>
        <mxCell id="6LrgvF6shyWRI7KwbfYu-33" value="" style="shape=actor;whiteSpace=wrap;html=1;" vertex="1" parent="1">
          <mxGeometry x="-253" y="-80" width="40" height="60" as="geometry" />
        </mxCell>
        <mxCell id="6LrgvF6shyWRI7KwbfYu-65" value="" style="outlineConnect=0;dashed=0;verticalLabelPosition=bottom;verticalAlign=top;align=center;html=1;shape=mxgraph.aws3.cloudwatch;fillColor=#759C3E;gradientColor=none;" vertex="1" parent="1">
          <mxGeometry x="970" y="-441" width="82.5" height="93" as="geometry" />
        </mxCell>
        <mxCell id="6LrgvF6shyWRI7KwbfYu-66" value="" style="outlineConnect=0;dashed=0;verticalLabelPosition=bottom;verticalAlign=top;align=center;html=1;shape=mxgraph.aws3.sns;fillColor=#D9A741;gradientColor=none;" vertex="1" parent="1">
          <mxGeometry x="1070" y="-440" width="76.5" height="76.5" as="geometry" />
        </mxCell>
      </root>
    </mxGraphModel>
  </diagram>
</mxfile>
